<?xml version="1.0" encoding="utf-8"?>
<!-- Generator: Adobe Illustrator 24.1.1, SVG Export Plug-In . SVG Version: 6.00 Build 0)  -->
<svg version="1.1" id="Layer_1" xmlns="http://www.w3.org/2000/svg" xmlns:xlink="http://www.w3.org/1999/xlink" x="0px" y="0px"
	 viewBox="0 0 262.7 118.6" style="enable-background:new 0 0 262.7 118.6;" xml:space="preserve">
<style type="text/css">
	.st0{fill:#FFFFFF;}
</style>
<g>
	<path class="st0" d="M73.2,41.3c0.2-1.5,0.3-3,0.3-4.5C73.5,16.5,57,0,36.8,0S0,16.5,0,36.8c0,1.5,0.1,3,0.3,4.5
		c-0.2,1.5-0.3,3-0.3,4.5s0.1,3,0.3,4.5c-0.2,1.5-0.3,3-0.3,4.5C0,75,16.5,91.5,36.8,91.5S73.5,75,73.5,54.8c0-1.5-0.1-3-0.3-4.5
		c0.2-1.5,0.3-3,0.3-4.5S73.4,42.7,73.2,41.3z M27.9,70.9L2.8,45.8l25.1-25.1c2.8-0.7,5.8-1.1,8.8-1.1s6,0.4,8.8,1.1l25.1,25.1
		L45.6,70.9c-2.8,0.7-5.8,1.1-8.8,1.1S30.7,71.6,27.9,70.9z M24.8,69.9C15,66.4,7.1,58.5,3.6,48.7L24.8,69.9z M3.6,42.8
		C7.1,33,15,25.1,24.8,21.6L3.6,42.8z M48.7,21.6c9.9,3.5,17.7,11.4,21.3,21.3L48.7,21.6z M69.9,48.7c-3.6,9.9-11.4,17.7-21.3,21.3
		L69.9,48.7z M71.5,42.8C66.5,28.4,52.8,18,36.8,18S7,28.4,2,42.8c-0.1-0.5-0.2-1-0.2-1.5c2.2-17.3,17-30.8,35-30.8
		s32.7,13.4,34.9,30.8C71.6,41.8,71.6,42.3,71.5,42.8z M2,48.8c5,14.4,18.7,24.8,34.7,24.8s29.7-10.4,34.7-24.8
		c0.1,0.5,0.2,1,0.2,1.5C69.5,67.6,54.7,81,36.8,81S4,67.6,1.8,50.3C1.9,49.8,1.9,49.3,2,48.8z M36.8,1.5c18.9,0,34.4,15,35.2,33.7
		C67.4,20.1,53.4,9,36.8,9S6.1,20.1,1.5,35.2C2.3,16.5,17.8,1.5,36.8,1.5z M36.8,90C17.8,90,2.3,75,1.5,56.3
		c4.5,15.2,18.6,26.2,35.2,26.2S67.4,71.4,72,56.3C71.2,75,55.7,90,36.8,90z"/>
	<g>
		<path class="st0" d="M111,31.2c0.9,1,1.3,2.2,1.3,3.6c0,1.9-0.7,3.5-2.1,4.7c-1.4,1.2-3.3,1.8-5.5,1.8c-4.7,0-7.7-2.6-8.1-6.9h1.9
			c0.3,3.3,2.5,5.3,6.2,5.3c3.6,0,5.8-1.9,5.8-4.8c0-2.8-2-4.5-5.3-4.5h-2.6v-1.8h2.5c3,0,4.8-1.5,4.8-4.3c0-2.8-1.9-4.7-5.1-4.7
			c-3.3,0-5.5,2.2-5.7,5.4h-1.8c0.3-4.3,3.2-7.1,7.5-7.1c2.1,0,3.8,0.6,5.1,1.8c1.3,1.2,1.9,2.7,1.9,4.6c0,2.6-1.8,4.7-4.1,5.1
			C109,29.6,110.1,30.2,111,31.2z"/>
		<path class="st0" d="M129.3,31.4V41h-1.9V18.3h8.2c5,0,7.7,2.3,7.7,6.5c0,3.3-2.3,5.8-5.5,6.3l6.5,9.9h-2.2l-6.3-9.6
			C135.8,31.4,129.3,31.4,129.3,31.4z M129.3,20v9.7h6.3c3.7,0,5.8-1.8,5.8-4.9c0-3-2.1-4.8-5.8-4.8L129.3,20L129.3,20z"/>
		<path class="st0" d="M163,39.3V41h-14.7V18.3H163V20h-12.9v8.8h11.5v1.7h-11.5v8.8L163,39.3L163,39.3z"/>
		<path class="st0" d="M185.9,41h-2l-2.7-6.8h-11.3l-2.7,6.8h-1.9l9.3-22.7h2.2L185.9,41z M175.5,20.3L175.5,20.3l-5,12.3h10
			L175.5,20.3z"/>
		<path class="st0" d="M203.4,41h-14.4V18.3h1.9v21h12.5V41z"/>
		<path class="st0" d="M227.4,20L219.5,41h-1.8L209.9,20h-0.1V41h-1.9V18.3h3.3l7.5,20.3h0.1l7.5-20.3h3.1V41h-1.9L227.4,20
			L227.4,20z"/>
		<path class="st0" d="M117.3,71.3H115l-5.5-20h-0.1l-5.5,20h-2.2l-6.5-22.7h2.1l5.6,20.3h0.1l5.5-20.3h2.2l5.5,20.3h0.1l5.6-20.3
			h1.9L117.3,71.3z"/>
		<path class="st0" d="M141.9,69.5v1.7h-14.7V48.5H142v1.7h-12.9v8.8h11.5v1.7h-11.5v8.8L141.9,69.5L141.9,69.5z"/>
		<path class="st0" d="M161.1,71.3h-14.4V48.5h1.9v21h12.5V71.3z"/>
		<path class="st0" d="M180,71.3h-14.4V48.5h1.9v21H180V71.3z"/>
		<path class="st0" d="M184.5,48.5h2.5l12.9,19.3h0.1V48.5h1.9v22.7h-1.8l-13.6-20.4h-0.1v20.4h-1.9L184.5,48.5L184.5,48.5z"/>
		<path class="st0" d="M222.3,69.5v1.7h-14.7V48.5h14.8v1.7h-12.9v8.8H221v1.7h-11.5v8.8L222.3,69.5L222.3,69.5z"/>
		<path class="st0" d="M225.6,64.6h1.9c0.4,3.5,2.9,5.3,7.2,5.3c3.7,0,6.1-1.8,6.1-4.7c0-2.3-1.4-3.5-4.4-4.1l-4.4-0.9
			c-3.9-0.8-5.6-2.6-5.6-5.7c0-1.8,0.7-3.4,2.1-4.6c1.4-1.2,3.2-1.8,5.4-1.8c4.8,0,7.8,2.1,8.2,6h-1.9c-0.4-2.7-2.8-4.3-6.3-4.3
			c-3.4,0-5.7,1.9-5.7,4.7c0,2.3,1.1,3.3,4.3,4l4.5,0.9c3.9,0.8,5.6,2.6,5.6,5.8c0,1.9-0.7,3.4-2.2,4.6c-1.5,1.2-3.4,1.8-5.7,1.8
			C229.4,71.6,225.9,69.1,225.6,64.6z"/>
		<path class="st0" d="M245.7,64.6h1.9c0.4,3.5,2.9,5.3,7.2,5.3c3.7,0,6.1-1.8,6.1-4.7c0-2.3-1.4-3.5-4.4-4.1l-4.4-0.9
			c-3.9-0.8-5.6-2.6-5.6-5.7c0-1.8,0.7-3.4,2.1-4.6c1.4-1.2,3.2-1.8,5.4-1.8c4.8,0,7.8,2.1,8.2,6h-1.9c-0.4-2.7-2.8-4.3-6.3-4.3
			c-3.4,0-5.7,1.9-5.7,4.7c0,2.3,1.1,3.3,4.3,4l4.5,0.9c3.9,0.8,5.6,2.6,5.6,5.8c0,1.9-0.7,3.4-2.2,4.6c-1.5,1.2-3.4,1.8-5.7,1.8
			C249.4,71.6,245.9,69.1,245.7,64.6z"/>
	</g>
	<g>
		<path class="st0" d="M36.2,116.2h1.4c0.1,0.9,0.8,1.4,1.9,1.4c1,0,1.6-0.4,1.6-1.2c0-0.6-0.4-0.9-1.2-1l-1.4-0.3
			c-1.4-0.2-2-0.9-2-2.1c0-0.7,0.3-1.2,0.8-1.6c0.5-0.4,1.2-0.6,2-0.6c1.8,0,2.9,0.8,3,2.2H41c-0.1-0.7-0.7-1.2-1.7-1.2
			c-0.9,0-1.5,0.5-1.5,1.1c0,0.6,0.3,0.8,1.2,1l1.5,0.3c1.3,0.3,2,0.9,2,2.1c0,0.7-0.3,1.2-0.8,1.6c-0.5,0.4-1.3,0.7-2.1,0.7
			C37.6,118.6,36.4,117.7,36.2,116.2z"/>
		<path class="st0" d="M47.6,115.7h-1.8v2.8h-1.4v-7.6h3.1c1.8,0,2.8,0.8,2.8,2.4C50.4,114.8,49.4,115.7,47.6,115.7z M45.8,112v2.6
			h1.6c1,0,1.6-0.4,1.6-1.3s-0.5-1.3-1.6-1.3H45.8z"/>
		<path class="st0" d="M53.6,118.4h-1.4v-7.6h1.4V118.4z"/>
		<path class="st0" d="M57.3,115.6v2.8H56v-7.6h3.2c1.8,0,2.8,0.8,2.8,2.4c0,1.1-0.6,1.8-1.6,2.2l1.9,3h-1.5l-1.7-2.8
			C59,115.6,57.3,115.6,57.3,115.6z M57.3,112v2.5H59c1,0,1.6-0.4,1.6-1.3c0-0.8-0.5-1.3-1.6-1.3C59,112,57.3,112,57.3,112z"/>
		<path class="st0" d="M65.5,118.4h-1.4v-7.6h1.4V118.4z"/>
		<path class="st0" d="M71.5,118.4h-1.4V112h-2.7v-1.1h6.8v1.1h-2.7V118.4z"/>
		<path class="st0" d="M82.5,110.9v4.5c0,2-1.2,3.2-3.2,3.2c-2.1,0-3.2-1.2-3.2-3.2v-4.5h1.4v4.5c0,1.4,0.6,2.1,1.8,2.1
			s1.8-0.7,1.8-2.1v-4.5C81.1,110.9,82.5,110.9,82.5,110.9z"/>
		<path class="st0" d="M91.5,118.4H90l-0.7-1.8h-3.4l-0.7,1.8h-1.4l3-7.6h1.6L91.5,118.4z M87.6,112.2L87.6,112.2l-1.3,3.3h2.6
			L87.6,112.2z"/>
		<path class="st0" d="M98.4,118.4h-5.3v-7.6h1.4v6.4h3.9C98.4,117.3,98.4,118.4,98.4,118.4z"/>
		<path class="st0" d="M115,115.7h-1.8v2.8h-1.4v-7.6h3.1c1.8,0,2.8,0.8,2.8,2.4C117.8,114.8,116.8,115.7,115,115.7z M113.2,112v2.6
			h1.6c1.1,0,1.6-0.4,1.6-1.3s-0.5-1.3-1.6-1.3H113.2z"/>
		<path class="st0" d="M121,118.4h-1.4v-7.6h1.4v3.2h3.9v-3.2h1.4v7.6h-1.4v-3.3H121V118.4z"/>
		<path class="st0" d="M132.3,115.3v3.1h-1.4v-3.1l-2.9-4.5h1.6l2.1,3.2h0l2-3.2h1.5L132.3,115.3z"/>
		<path class="st0" d="M136.1,116.2h1.4c0.1,0.9,0.8,1.4,1.9,1.4c1,0,1.6-0.4,1.6-1.2c0-0.6-0.4-0.9-1.2-1l-1.4-0.3
			c-1.4-0.2-2-0.9-2-2.1c0-0.7,0.3-1.2,0.8-1.6s1.2-0.6,2-0.6c1.8,0,2.9,0.8,3,2.2h-1.3c-0.1-0.7-0.7-1.2-1.7-1.2
			c-0.9,0-1.5,0.5-1.5,1.1c0,0.6,0.3,0.8,1.2,1l1.5,0.3c1.3,0.3,2,0.9,2,2.1c0,0.7-0.3,1.2-0.8,1.6c-0.6,0.4-1.3,0.7-2.1,0.7
			C137.4,118.6,136.2,117.7,136.1,116.2z"/>
		<path class="st0" d="M145.7,118.4h-1.4v-7.6h1.4V118.4z"/>
		<path class="st0" d="M149,114.6c0,1.8,0.8,2.8,2.1,2.8c1,0,1.6-0.5,1.7-1.4h1.4c-0.3,1.6-1.4,2.5-3.1,2.5c-1.1,0-1.9-0.4-2.6-1.1
			c-0.7-0.7-1-1.7-1-2.8c0-1.2,0.3-2.1,1-2.8c0.7-0.7,1.5-1.1,2.6-1.1c1.7,0,2.8,0.9,3.1,2.5h-1.4c-0.2-0.9-0.8-1.4-1.7-1.4
			C149.8,111.9,149,112.9,149,114.6z"/>
		<path class="st0" d="M162.9,118.4h-1.4l-0.7-1.8h-3.4l-0.7,1.8h-1.4l3-7.6h1.6L162.9,118.4z M159.1,112.2L159.1,112.2l-1.3,3.3
			h2.6L159.1,112.2z"/>
		<path class="st0" d="M169.9,118.4h-5.3v-7.6h1.4v6.4h3.9V118.4z"/>
		<path class="st0" d="M183.3,110.9h2.9c1.1,0,2.1,0.3,2.7,1s1,1.6,1,2.7s-0.4,2.1-1,2.7s-1.6,1-2.7,1h-2.9V110.9z M186.3,112h-1.5
			v5.3h1.5c1.5,0,2.3-1,2.3-2.7S187.7,112,186.3,112z"/>
		<path class="st0" d="M193.4,118.4h-1.4v-7.6h1.4V118.4z"/>
		<path class="st0" d="M196.3,117.5c-0.7-0.7-1-1.7-1-2.8c0-1.2,0.3-2.1,1-2.8c0.7-0.7,1.6-1.1,2.6-1.1c1.7,0,2.9,0.9,3.2,2.5h-1.4
			c-0.2-0.9-0.8-1.4-1.8-1.4c-1.4,0-2.2,1.1-2.2,2.8c0,1.8,0.8,2.8,2.2,2.8c1.1,0,1.9-0.7,1.9-1.6v-0.3h-1.5v-1h2.9v3.8h-1.1
			l-0.1-1.1c-0.1,0.3-0.4,0.6-0.8,0.9c-0.4,0.2-0.9,0.3-1.4,0.3C197.8,118.6,196.9,118.2,196.3,117.5z"/>
		<path class="st0" d="M205.8,118.4h-1.4v-7.6h1.4V118.4z"/>
		<path class="st0" d="M211.8,118.4h-1.4V112h-2.7v-1.1h6.8v1.1h-2.7V118.4z"/>
		<path class="st0" d="M222.6,118.4h-1.4l-0.7-1.8h-3.4l-0.7,1.8H215l3-7.6h1.6L222.6,118.4z M218.8,112.2L218.8,112.2l-1.3,3.3h2.6
			L218.8,112.2z"/>
		<path class="st0" d="M229.6,118.4h-5.3v-7.6h1.4v6.4h3.9V118.4z"/>
	</g>
	<rect x="71.9" y="45" class="st0" width="0.7" height="1.6"/>
</g>
</svg>
