<?xml version="1.0" encoding="utf-8"?>
<!-- Generator: Adobe Illustrator 24.1.1, SVG Export Plug-In . SVG Version: 6.00 Build 0)  -->
<svg version="1.1" id="Layer_1" xmlns="http://www.w3.org/2000/svg" xmlns:xlink="http://www.w3.org/1999/xlink" x="0px" y="0px"
	 viewBox="0 0 262.67 118.56" style="enable-background:new 0 0 262.67 118.56;" xml:space="preserve">
<g>
	<path d="M73.21,41.25c0.18-1.48,0.29-2.98,0.29-4.5C73.5,16.49,57.01,0,36.75,0S0,16.49,0,36.75c0,1.52,0.1,3.02,0.29,4.5
		C0.1,42.73,0,44.23,0,45.75s0.1,3.02,0.29,4.5C0.1,51.73,0,53.23,0,54.75C0,75.01,16.49,91.5,36.75,91.5S73.5,75.01,73.5,54.75
		c0-1.52-0.1-3.02-0.29-4.5c0.18-1.48,0.29-2.98,0.29-4.5S73.4,42.73,73.21,41.25z M27.91,70.88L2.78,45.75l25.13-25.13
		c2.83-0.73,5.79-1.12,8.84-1.12s6.01,0.39,8.84,1.12l25.13,25.13L45.59,70.88C42.76,71.61,39.8,72,36.75,72
		C33.7,72,30.74,71.61,27.91,70.88z M24.83,69.92c-9.87-3.55-17.7-11.39-21.26-21.26L24.83,69.92z M3.58,42.83
		c3.55-9.87,11.39-17.7,21.26-21.26L3.58,42.83z M48.67,21.58c9.87,3.55,17.7,11.39,21.26,21.26L48.67,21.58z M69.92,48.67
		c-3.55,9.87-11.39,17.7-21.26,21.26L69.92,48.67z M71.48,42.75C66.49,28.36,52.81,18,36.75,18S7.01,28.36,2.02,42.75
		c-0.09-0.5-0.16-1-0.22-1.5C4.02,23.93,18.84,10.5,36.75,10.5S69.48,23.93,71.7,41.25C71.64,41.75,71.56,42.25,71.48,42.75z
		 M2.02,48.75C7.01,63.14,20.69,73.5,36.75,73.5s29.74-10.36,34.73-24.75c0.09,0.5,0.16,1,0.22,1.5C69.48,67.57,54.66,81,36.75,81
		S4.02,67.57,1.8,50.25C1.86,49.75,1.94,49.25,2.02,48.75z M36.75,1.5c18.93,0,34.42,15,35.21,33.74C67.43,20.08,53.36,9,36.75,9
		S6.07,20.08,1.54,35.24C2.33,16.5,17.82,1.5,36.75,1.5z M36.75,90C17.82,90,2.33,75,1.54,56.26C6.07,71.42,20.14,82.5,36.75,82.5
		s30.68-11.08,35.21-26.24C71.17,75,55.68,90,36.75,90z"/>
	<g>
		<path d="M110.97,31.23c0.86,1.02,1.3,2.23,1.3,3.63c0,1.91-0.7,3.47-2.1,4.71c-1.4,1.24-3.25,1.85-5.54,1.85
			c-4.71,0-7.73-2.64-8.08-6.94h1.91c0.25,3.28,2.51,5.25,6.17,5.25c3.56,0,5.79-1.88,5.79-4.84c0-2.8-2.04-4.55-5.31-4.55h-2.58
			v-1.75h2.48c3.02,0,4.77-1.53,4.77-4.29c0-2.83-1.94-4.68-5.09-4.68c-3.28,0-5.47,2.23-5.7,5.44h-1.84
			c0.29-4.33,3.18-7.13,7.54-7.13c2.13,0,3.85,0.6,5.12,1.78c1.27,1.21,1.91,2.74,1.91,4.61c0,2.64-1.75,4.74-4.07,5.09
			C108.99,29.61,110.11,30.21,110.97,31.23z"/>
		<path d="M129.26,31.42v9.61h-1.91V18.32h8.21c4.96,0,7.73,2.32,7.73,6.55c0,3.28-2.26,5.76-5.47,6.3l6.52,9.86h-2.23l-6.3-9.61
			H129.26z M129.26,20.03v9.7h6.3c3.69,0,5.76-1.78,5.76-4.87c0-3.05-2.1-4.84-5.76-4.84H129.26z"/>
		<path d="M162.98,39.31v1.72h-14.73V18.32h14.79v1.72h-12.89v8.81h11.49v1.72h-11.49v8.75H162.98z"/>
		<path d="M185.88,41.03h-2.04l-2.7-6.78h-11.29l-2.7,6.78h-1.94l9.26-22.72h2.16L185.88,41.03z M175.54,20.29h-0.09l-4.93,12.31
			h9.96L175.54,20.29z"/>
		<path d="M203.44,41.03h-14.38V18.32h1.91v21h12.47V41.03z"/>
		<path d="M227.45,19.97l-7.92,21.06h-1.75l-7.89-21.06h-0.06v21.06h-1.88V18.32h3.25l7.51,20.3h0.06l7.51-20.3h3.09v22.72h-1.85
			V19.97H227.45z"/>
		<path d="M117.27,71.25h-2.26l-5.5-19.95h-0.06l-5.54,19.95h-2.23l-6.46-22.72h2.07l5.6,20.27h0.06l5.5-20.27h2.16l5.54,20.27h0.06
			l5.57-20.27h1.94L117.27,71.25z"/>
		<path d="M141.95,69.53v1.72h-14.73V48.54h14.79v1.72h-12.89v8.81h11.49v1.72h-11.49v8.75H141.95z"/>
		<path d="M161.1,71.25h-14.38V48.54h1.91v21h12.47V71.25z"/>
		<path d="M179.99,71.25h-14.38V48.54h1.91v21h12.47V71.25z"/>
		<path d="M184.51,48.54h2.48l12.95,19.28H200V48.54h1.88v22.72h-1.81l-13.62-20.36h-0.06v20.36h-1.88V48.54z"/>
		<path d="M222.33,69.53v1.72H207.6V48.54h14.79v1.72h-12.89v8.81H221v1.72h-11.49v8.75H222.33z"/>
		<path d="M225.64,64.6h1.85c0.35,3.47,2.89,5.34,7.22,5.34c3.69,0,6.08-1.84,6.08-4.74c0-2.26-1.4-3.53-4.36-4.07l-4.39-0.89
			c-3.91-0.76-5.63-2.58-5.63-5.73c0-1.85,0.7-3.37,2.13-4.58c1.4-1.18,3.21-1.78,5.44-1.78c4.84,0,7.79,2.13,8.18,5.98h-1.88
			c-0.41-2.67-2.77-4.29-6.3-4.29c-3.44,0-5.73,1.91-5.73,4.68c0,2.26,1.05,3.28,4.26,3.95l4.52,0.92c3.91,0.8,5.6,2.61,5.6,5.76
			c0,1.88-0.73,3.44-2.23,4.64c-1.5,1.24-3.37,1.85-5.69,1.85C229.36,71.63,225.89,69.06,225.64,64.6z"/>
		<path d="M245.68,64.6h1.85c0.35,3.47,2.89,5.34,7.22,5.34c3.69,0,6.08-1.84,6.08-4.74c0-2.26-1.4-3.53-4.36-4.07l-4.39-0.89
			c-3.91-0.76-5.63-2.58-5.63-5.73c0-1.85,0.7-3.37,2.13-4.58c1.4-1.18,3.21-1.78,5.44-1.78c4.84,0,7.79,2.13,8.18,5.98h-1.88
			c-0.41-2.67-2.77-4.29-6.3-4.29c-3.44,0-5.73,1.91-5.73,4.68c0,2.26,1.05,3.28,4.26,3.95l4.52,0.92c3.91,0.8,5.6,2.61,5.6,5.76
			c0,1.88-0.73,3.44-2.23,4.64c-1.5,1.24-3.37,1.85-5.69,1.85C249.4,71.63,245.93,69.06,245.68,64.6z"/>
	</g>
	<g>
		<path d="M36.23,116.15h1.36c0.08,0.89,0.78,1.38,1.93,1.38c0.96,0,1.6-0.44,1.6-1.16c0-0.56-0.36-0.86-1.24-1.03l-1.39-0.25
			c-1.36-0.24-2.01-0.92-2.01-2.05c0-0.67,0.26-1.22,0.79-1.64c0.53-0.42,1.21-0.64,2.04-0.64c1.81,0,2.89,0.79,3.03,2.2h-1.32
			c-0.1-0.72-0.73-1.15-1.69-1.15c-0.89,0-1.48,0.47-1.48,1.14c0,0.55,0.28,0.8,1.21,0.99l1.46,0.29c1.34,0.25,1.98,0.92,1.98,2.07
			c0,0.67-0.28,1.22-0.83,1.64c-0.55,0.43-1.25,0.65-2.11,0.65C37.6,118.56,36.36,117.68,36.23,116.15z"/>
		<path d="M47.56,115.65H45.8v2.79h-1.38v-7.56h3.12c1.82,0,2.83,0.84,2.83,2.39C50.38,114.8,49.38,115.65,47.56,115.65z
			 M45.8,111.99v2.56h1.63c1.05,0,1.56-0.42,1.56-1.28c0-0.86-0.51-1.28-1.56-1.28H45.8z"/>
		<path d="M53.62,118.44h-1.41v-7.56h1.41V118.44z"/>
		<path d="M57.34,115.61v2.83h-1.38v-7.56h3.24c1.79,0,2.81,0.85,2.81,2.37c0,1.05-0.6,1.82-1.61,2.15l1.9,3.04h-1.54l-1.73-2.83
			H57.34z M57.34,111.99v2.52h1.71c1.05,0,1.58-0.42,1.58-1.26c0-0.84-0.53-1.26-1.58-1.26H57.34z"/>
		<path d="M65.52,118.44h-1.41v-7.56h1.41V118.44z"/>
		<path d="M71.52,118.44h-1.4v-6.45h-2.71v-1.11h6.83v1.11h-2.72V118.44z"/>
		<path d="M82.5,110.87v4.51c0,2.03-1.15,3.18-3.23,3.18c-2.06,0-3.23-1.15-3.23-3.2v-4.49h1.41v4.5c0,1.36,0.63,2.07,1.82,2.07
			s1.83-0.72,1.83-2.07v-4.5H82.5z"/>
		<path d="M91.46,118.44h-1.44l-0.71-1.85H85.9l-0.72,1.85H83.8l3.04-7.56h1.58L91.46,118.44z M87.64,112.23h-0.03l-1.27,3.26h2.55
			L87.64,112.23z"/>
		<path d="M98.38,118.44h-5.31v-7.56h1.41v6.45h3.9V118.44z"/>
		<path d="M114.99,115.65h-1.76v2.79h-1.38v-7.56h3.12c1.82,0,2.83,0.84,2.83,2.39C117.8,114.8,116.81,115.65,114.99,115.65z
			 M113.23,111.99v2.56h1.63c1.05,0,1.56-0.42,1.56-1.28c0-0.86-0.51-1.28-1.56-1.28H113.23z"/>
		<path d="M121.04,118.44h-1.41v-7.56h1.41v3.18h3.88v-3.18h1.4v7.56h-1.4v-3.28h-3.88V118.44z"/>
		<path d="M132.25,115.33v3.1h-1.41v-3.1l-2.92-4.46h1.57l2.1,3.23h0.02l2.04-3.23h1.54L132.25,115.33z"/>
		<path d="M136.07,116.15h1.36c0.08,0.89,0.78,1.38,1.93,1.38c0.96,0,1.6-0.44,1.6-1.16c0-0.56-0.36-0.86-1.24-1.03l-1.39-0.25
			c-1.36-0.24-2.01-0.92-2.01-2.05c0-0.67,0.26-1.22,0.79-1.64c0.53-0.42,1.21-0.64,2.04-0.64c1.81,0,2.89,0.79,3.03,2.2h-1.32
			c-0.1-0.72-0.73-1.15-1.69-1.15c-0.89,0-1.48,0.47-1.48,1.14c0,0.55,0.28,0.8,1.21,0.99l1.46,0.29c1.34,0.25,1.98,0.92,1.98,2.07
			c0,0.67-0.28,1.22-0.83,1.64c-0.55,0.43-1.25,0.65-2.11,0.65C137.44,118.56,136.2,117.68,136.07,116.15z"/>
		<path d="M145.67,118.44h-1.41v-7.56h1.41V118.44z"/>
		<path d="M149.04,114.64c0,1.77,0.78,2.81,2.13,2.81c0.96,0,1.56-0.49,1.73-1.39h1.37c-0.29,1.58-1.4,2.5-3.09,2.5
			c-1.07,0-1.93-0.36-2.57-1.08c-0.66-0.72-0.99-1.66-0.99-2.84c0-1.17,0.33-2.11,0.99-2.83c0.66-0.71,1.51-1.07,2.57-1.07
			c1.69,0,2.81,0.9,3.09,2.5h-1.37c-0.17-0.9-0.76-1.39-1.73-1.39C149.83,111.86,149.04,112.9,149.04,114.64z"/>
		<path d="M162.94,118.44h-1.44l-0.71-1.85h-3.41l-0.72,1.85h-1.38l3.04-7.56h1.58L162.94,118.44z M159.12,112.23h-0.03l-1.27,3.26
			h2.55L159.12,112.23z"/>
		<path d="M169.87,118.44h-5.31v-7.56h1.41v6.45h3.9V118.44z"/>
		<path d="M183.34,110.87h2.91c1.13,0,2.05,0.35,2.74,1.04s1.04,1.61,1.04,2.74c0,1.13-0.35,2.05-1.04,2.74s-1.61,1.04-2.74,1.04
			h-2.91V110.87z M186.25,111.99h-1.54v5.34h1.54c1.49,0,2.34-0.97,2.34-2.67S187.74,111.99,186.25,111.99z"/>
		<path d="M193.36,118.44h-1.41v-7.56h1.41V118.44z"/>
		<path d="M196.29,117.48c-0.66-0.72-0.99-1.66-0.99-2.84c0-1.15,0.34-2.1,1.02-2.82c0.67-0.72,1.55-1.08,2.64-1.08
			c1.73,0,2.85,0.89,3.16,2.49h-1.39c-0.18-0.9-0.8-1.38-1.77-1.38c-1.39,0-2.22,1.05-2.22,2.79c0,1.75,0.82,2.81,2.2,2.81
			c1.1,0,1.87-0.66,1.87-1.59v-0.26h-1.46v-1.02h2.86v3.85h-1.09l-0.1-1.08c-0.14,0.35-0.4,0.64-0.82,0.86
			c-0.41,0.23-0.87,0.35-1.36,0.35C197.79,118.56,196.93,118.2,196.29,117.48z"/>
		<path d="M205.84,118.44h-1.41v-7.56h1.41V118.44z"/>
		<path d="M211.84,118.44h-1.4v-6.45h-2.71v-1.11h6.83v1.11h-2.72V118.44z"/>
		<path d="M222.63,118.44h-1.44l-0.71-1.85h-3.41l-0.72,1.85h-1.38l3.04-7.56h1.58L222.63,118.44z M218.81,112.23h-0.03l-1.27,3.26
			h2.55L218.81,112.23z"/>
		<path d="M229.56,118.44h-5.31v-7.56h1.41v6.45h3.9V118.44z"/>
	</g>
	<rect x="71.88" y="44.98" width="0.71" height="1.57"/>
</g>
</svg>
